<?xml version="1.0" standalone="no"?><!DOCTYPE svg PUBLIC "-//W3C//DTD SVG 1.1//EN" "http://www.w3.org/Graphics/SVG/1.1/DTD/svg11.dtd"><svg t="1659350187144" class="icon" viewBox="0 0 1024 1024" version="1.1" xmlns="http://www.w3.org/2000/svg" p-id="12924" xmlns:xlink="http://www.w3.org/1999/xlink" width="64" height="64"><defs><style type="text/css">@font-face { font-family: feedback-iconfont; src: url("//at.alicdn.com/t/font_1031158_u69w8yhxdu.woff2?t=1630033759944") format("woff2"), url("//at.alicdn.com/t/font_1031158_u69w8yhxdu.woff?t=1630033759944") format("woff"), url("//at.alicdn.com/t/font_1031158_u69w8yhxdu.ttf?t=1630033759944") format("truetype"); }
</style></defs><path d="M0 0h1024v1024H0z" fill="#FFFFFF" fill-opacity="0" p-id="12925"></path><path d="M572.330667 89.6L934.4 451.697778a85.333333 85.333333 0 0 1 0 120.661333L572.330667 934.4a85.333333 85.333333 0 0 1-120.661334 0L89.6 572.330667a85.333333 85.333333 0 0 1 0-120.661334L451.669333 89.6a85.333333 85.333333 0 0 1 120.661334 0z" fill="#e33c69" p-id="12926"></path><path d="M312.888889 512a199.111111 199.111111 0 1 0 398.222222 0 199.111111 199.111111 0 0 0-398.222222 0z" fill="#FFFFFF" p-id="12927"></path><path d="M398.222222 483.555556m28.444445 0l170.666666 0q28.444444 0 28.444445 28.444444l0 0q0 28.444444-28.444445 28.444444l-170.666666 0q-28.444444 0-28.444445-28.444444l0 0q0-28.444444 28.444445-28.444444Z" fill="#48A8FF" p-id="12928"></path><path d="M540.444444 398.222222m0 28.444445l0 170.666666q0 28.444444-28.444444 28.444445l0 0q-28.444444 0-28.444444-28.444445l0-170.666666q0-28.444444 28.444444-28.444445l0 0q28.444444 0 28.444444 28.444445Z" fill="#e33c69" p-id="12929"></path></svg>