<?xml version="1.0" standalone="no"?><!DOCTYPE svg PUBLIC "-//W3C//DTD SVG 1.1//EN" "http://www.w3.org/Graphics/SVG/1.1/DTD/svg11.dtd"><svg t="1659351042964" class="icon" viewBox="0 0 1024 1024" version="1.1" xmlns="http://www.w3.org/2000/svg" p-id="33236" xmlns:xlink="http://www.w3.org/1999/xlink" width="64" height="64"><defs><style type="text/css">@font-face { font-family: feedback-iconfont; src: url("//at.alicdn.com/t/font_1031158_u69w8yhxdu.woff2?t=1630033759944") format("woff2"), url("//at.alicdn.com/t/font_1031158_u69w8yhxdu.woff?t=1630033759944") format("woff"), url("//at.alicdn.com/t/font_1031158_u69w8yhxdu.ttf?t=1630033759944") format("truetype"); }
</style></defs><path d="M160 64m96 0l512 0q96 0 96 96l0 704q0 96-96 96l-512 0q-96 0-96-96l0-704q0-96 96-96Z" fill="#3F86FF" p-id="33237"></path><path d="M736 192H288a32 32 0 1 0 0 64h448a32 32 0 1 0 0-64zM544 352H288a32 32 0 1 0 0 64h256a32 32 0 1 0 0-64z" fill="#FFFFFF" opacity=".75" p-id="33238"></path><path d="M630 524m-40 0a40 40 0 1 0 80 0 40 40 0 1 0-80 0Z" fill="#FFFFFF" p-id="33239"></path><path d="M744 584H516a24 24 0 1 0 0 48h42v176a24 24 0 0 0 48 0v-72h48v72a24 24 0 0 0 48 0V632h42a24 24 0 0 0 0-48z" fill="#FFFFFF" p-id="33240"></path></svg>