<?xml version="1.0" standalone="no"?><!DOCTYPE svg PUBLIC "-//W3C//DTD SVG 1.1//EN" "http://www.w3.org/Graphics/SVG/1.1/DTD/svg11.dtd"><svg t="1659350437741" class="icon" viewBox="0 0 1024 1024" version="1.1" xmlns="http://www.w3.org/2000/svg" p-id="14505" xmlns:xlink="http://www.w3.org/1999/xlink" width="64" height="64"><defs><style type="text/css">@font-face { font-family: feedback-iconfont; src: url("//at.alicdn.com/t/font_1031158_u69w8yhxdu.woff2?t=1630033759944") format("woff2"), url("//at.alicdn.com/t/font_1031158_u69w8yhxdu.woff?t=1630033759944") format("woff"), url("//at.alicdn.com/t/font_1031158_u69w8yhxdu.ttf?t=1630033759944") format("truetype"); }
</style></defs><path d="M184.713846 651.854769l184.249108 188.191508 433.057477-435.105477-325.348431-39.2192z" fill="#96DD5D" p-id="14506"></path><path d="M829.2352 65.240615l128.106338 128.106339a19.692308 19.692308 0 0 1 0 27.848861l-5.568984 5.568985a19.688369 19.688369 0 0 1-27.844923 0l-128.110277-128.1024a19.692308 19.692308 0 0 1 0-27.844923l5.568984-5.576862a19.696246 19.696246 0 0 1 27.848862 0z" fill="#000000" p-id="14507"></path><path d="M871.010462 146.006646l5.568984 5.565046a19.696246 19.696246 0 0 1 0 27.8528l-133.675323 133.671385a19.688369 19.688369 0 0 1-27.844923 0l-5.572923-5.568985a19.684431 19.684431 0 0 1 0-27.844923l133.675323-133.675323a19.688369 19.688369 0 0 1 27.848862 0z" fill="#000000" p-id="14508"></path><path d="M595.306338 148.791138l278.488616 278.488616a19.692308 19.692308 0 0 1 0 27.848861l-5.568985 5.568985a19.688369 19.688369 0 0 1-27.848861 0l-278.488616-278.488615a19.692308 19.692308 0 0 1 0-27.848862l5.565046-5.568985a19.688369 19.688369 0 0 1 27.8528 0z" fill="#000000" p-id="14509"></path><path d="M648.219569 201.704369l16.328862 16.328862 3.316184 3.316184 77.024493 77.024493 5.127877 5.127877 59.017846 59.021784 3.851815 3.847877 7.995077 7.995077a19.692308 19.692308 0 0 1 0 27.848862l-9.030892 9.03483-4.269293 4.269293-27.82523 27.82523-7.872985 7.872985-12.792123 12.788185-9.129354 9.129354-9.562584 9.566523-4.934893 4.934892-10.149415 10.149415-21.283446 21.283446-11.063139 11.063139-28.561723 28.561723-47.182769 47.182769-23.630769 23.630769-56.749293 56.749293-15.852307 15.852307-29.270646 29.266708-8.893047 8.900923-57.403077 57.399139a19.700185 19.700185 0 0 1-27.848861 0l-3.946339-3.9424-6.545723-6.545723-2.780553-2.784493-65.299693-65.299692-15.521477-15.517538-78.572307-78.572308a19.692308 19.692308 0 0 1 0-27.8528l0.468677-0.468677 3.631261-3.631262 19.924677-19.924677 17.104738-17.104738 16.273724-16.273723 23.079384-23.079385 15.084308-15.084307 15.852308-15.852308 56.75323-56.753231 11.783877-11.783877 59.025723-59.025723 11.559385-11.559384 54.468923-54.468924 9.964308-9.964307 31.484061-31.484062 7.872985-7.872984 41.125415-41.125416a19.700185 19.700185 0 0 1 27.8528 0z m0 66.835693a19.692308 19.692308 0 0 0-27.8528 0l-11.145846 11.145846-4.1984 4.1984-40.211692 40.211692-7.837539 7.837538-21.055015 21.055016-4.430769 4.430769-13.654646 13.654646-28.59717 28.597169-9.798892 9.798893-4.930954 4.930954-14.871631 14.87163-4.970338 4.970339-19.838031 19.841969-4.930954 4.930954-9.798892 9.798892-28.597169 28.593231-13.654646 13.658585-4.43077 4.430769-21.055015 21.051077-7.837538 7.837538-7.45157 7.455508-7.041969 7.041969-25.718154 25.718154L300.110769 588.8l-11.145846 11.145846a19.692308 19.692308 0 0 0 0 27.848862l0.768 0.768 1.157908 1.157907 0.492307 0.496247 1.792 1.792 8.920616 8.920615 3.4304 3.426461 2.445784 2.449724 5.238154 5.234215L365.095385 703.929108l4.2496 4.253538 4.040861 4.040862 2.563939 2.56 9.944615 9.944615 2.626954 2.630892 4.513477 4.509539 1.157907 1.157908 0.768 0.771938a19.700185 19.700185 0 0 0 27.848862 0l1.547815-1.551754 13.796431-13.796431 32.760123-32.756184 7.455508-7.455508 11.886277-11.890215 8.349538-8.349539 8.656739-8.6528 22.740677-22.744615 19.081846-19.077908 9.743754-9.743754 4.911261-4.911261 44.614893-44.614893 4.930953-4.930953 14.655016-14.655016 19.077907-19.077907 39.746954-39.746954 19.345723-19.345723L754.215385 402.392615a19.696246 19.696246 0 0 0 0-27.8528l-0.126031-0.12603-0.157539-0.157539-0.48443-0.484431-2.2016-2.2016-1.941662-1.937723-4.155077-4.159015-2.993231-2.993231-2.185846-2.181908-8.6528-8.6528-2.717538-2.721476-4.253539-4.2496-5.923446-5.927385-4.596184-4.596185-1.555693-1.555692-11.055261-11.055262-11.0592-11.0592-13.512862-13.512861-2.812061-2.812062-7.845416-7.845415-4.639507-4.635569-7.483077-7.483077-2.678154-2.686031z" fill="#000000" p-id="14510"></path><path d="M584.164431 443.990646l66.835692 66.835692a19.696246 19.696246 0 0 1-27.844923 27.8528l-66.839631-66.83963a19.692308 19.692308 0 1 1 27.848862-27.848862zM536.820185 491.330954l66.835692 66.835692a19.696246 19.696246 0 0 1-27.844923 27.856739l-66.835692-66.84357a19.692308 19.692308 0 1 1 27.844923-27.844923zM475.553477 552.605538l66.835692 66.835693a19.692308 19.692308 0 1 1-27.844923 27.844923l-66.839631-66.835692a19.684431 19.684431 0 0 1 0-27.844924 19.688369 19.688369 0 0 1 27.844923 0zM408.713846 619.441231l66.835692 66.835692a19.692308 19.692308 0 1 1-27.844923 27.844923l-66.835692-66.835692a19.692308 19.692308 0 1 1 27.844923-27.844923zM252.412062 608.645908l0.192984 0.189046 0.5632 0.5632 1.508431 1.508431 4.155077 4.159015 2.189784 2.189785 6.667816 6.667815 4.737969 4.734031 3.4304 3.434338 3.6352 3.631262 7.809969 7.809969 12.839385 12.839385 30.609723 30.613661 4.844308 4.844308 30.613661 30.613661 4.407139 4.411077 24.942277 24.938339 3.099569 3.099569 13.012677 13.016615 1.094892 1.090954 0.980677 0.980677 0.189046 0.189046c18.455631 18.459569 18.455631 48.384 0 66.84357l-0.732554 0.728615-0.319015 0.319015-1.173662 1.169723-0.212677 0.212677c-18.455631 18.463508-48.380062 18.463508-66.835692 0l-0.047261-0.047261-5.387816-5.383877-2.048-2.048-4.934892-4.938831-4.379569-4.379569L322.953846 817.742769l-5.376-5.376-7.809969-7.809969-2.051939-2.055877-8.566153-8.566154-9.030893-9.030892-4.651323-4.647385-16.730584-16.730584-7.262523-7.266462-12.047754-12.043815-46.276923-46.276923-4.73797-4.73797-9.846153-9.846153-1.744739-1.7408-1.425723-1.425723-1.508431-1.51237-0.5632-0.5632-0.189046-0.189046c-18.459569-18.459569-18.459569-48.384 0-66.835692l0.212677-0.216616 0.519877-0.519876 0.968861-0.9728 0.732554-0.732554c18.459569-18.455631 48.384-18.455631 66.839631 0z m-20.539077 23.323569a17.723077 17.723077 0 1 0-24.875323 25.253415l0.960984 0.960985 1.0752 1.0752 3.111385 3.111385 2.016492 2.012553 10.708677 10.712616 3.268923 3.268923 3.473723 3.473723 11.500308 11.500308 6.270031 6.266092c3.560369 3.564308 7.246769 7.254646 11.027692 11.027692l42.326646 42.330585 4.639508 4.639508 17.723077 17.723076 4.143261 4.143262 3.997539 3.997538 3.84 3.84 3.662769 3.66277 3.477661 3.477661 7.750893 7.750893 7.266461 7.2704 4.663139 4.663138 1.2288 1.220923 0.417477 0.421415a17.723077 17.723077 0 1 0 25.064369-25.064369l-0.421415-0.417477-9.219939-9.223877-3.938461-3.934523-1.4336-1.437538-6.313354-6.313354-3.477662-3.473723-3.662769-3.662769-11.984739-11.984739-13.146584-13.154461-9.212062-9.208123-59.62043-59.620431-4.001477-4.001477-24.958031-24.958031-2.008616-2.008615-3.115323-3.115323-1.0752-1.0752-0.960984-0.960985-0.189046-0.189046z" fill="#000000" p-id="14511"></path><path d="M255.543138 733.625108l33.421785 33.413907-194.945969 194.942031-33.417846-33.417846z" fill="#000000" p-id="14512"></path><path d="M60.234831 963.261046l1.358769-33.831384 32.476554 32.472615z" fill="#4d7a12" p-id="14513"></path></svg>