<?xml version="1.0" standalone="no"?><!DOCTYPE svg PUBLIC "-//W3C//DTD SVG 1.1//EN" "http://www.w3.org/Graphics/SVG/1.1/DTD/svg11.dtd"><svg t="1660306282144" class="icon" viewBox="0 0 1024 1024" version="1.1" xmlns="http://www.w3.org/2000/svg" p-id="2370" width="64" height="64" xmlns:xlink="http://www.w3.org/1999/xlink"><defs><style type="text/css">@font-face { font-family: feedback-iconfont; src: url("//at.alicdn.com/t/font_1031158_u69w8yhxdu.woff2?t=1630033759944") format("woff2"), url("//at.alicdn.com/t/font_1031158_u69w8yhxdu.woff?t=1630033759944") format("woff"), url("//at.alicdn.com/t/font_1031158_u69w8yhxdu.ttf?t=1630033759944") format("truetype"); }
</style></defs><path d="M282.4 460C344 580.8 443.2 680 564 741.6L657.6 648c11.2-11.2 28.8-15.2 43.2-10.4 48 16 100 24 152.8 24 23.2 0 42.4 19.2 42.4 42.4v148.8c0 23.2-19.2 42.4-42.4 42.4C452.8 896 128 571.2 128 170.4c0-23.2 19.2-42.4 42.4-42.4H320c23.2 0 42.4 18.4 42.4 41.6 0 53.6 8.8 104.8 24 152.8 4.8 15.2 1.6 31.2-10.4 43.2L282.4 460z" p-id="2371" fill="#2c76ef"></path></svg>