<?xml version="1.0" standalone="no"?><!DOCTYPE svg PUBLIC "-//W3C//DTD SVG 1.1//EN" "http://www.w3.org/Graphics/SVG/1.1/DTD/svg11.dtd"><svg t="1660582421143" class="icon" viewBox="0 0 1024 1024" version="1.1" xmlns="http://www.w3.org/2000/svg" p-id="4681" width="64" height="64" xmlns:xlink="http://www.w3.org/1999/xlink"><defs><style type="text/css">@font-face { font-family: feedback-iconfont; src: url("//at.alicdn.com/t/font_1031158_u69w8yhxdu.woff2?t=1630033759944") format("woff2"), url("//at.alicdn.com/t/font_1031158_u69w8yhxdu.woff?t=1630033759944") format("woff"), url("//at.alicdn.com/t/font_1031158_u69w8yhxdu.ttf?t=1630033759944") format("truetype"); }
</style></defs><path d="M512 322.56a35.84 35.84 0 0 1-35.84-35.84V102.4a35.84 35.84 0 1 1 71.68 0v184.32a35.84 35.84 0 0 1-35.84 35.84zM512 957.44a35.84 35.84 0 0 1-35.84-35.84v-184.32a35.84 35.84 0 1 1 71.68 0v184.32a35.84 35.84 0 0 1-35.84 35.84zM645.95456 378.04544a35.83488 35.83488 0 0 1 0-50.68288l130.33472-130.33472a35.83488 35.83488 0 0 1 50.68288 0 35.83488 35.83488 0 0 1 0 50.68288l-130.33472 130.33472a35.83488 35.83488 0 0 1-50.68288 0zM197.02784 826.97216a35.83488 35.83488 0 0 1 0-50.68288l130.33472-130.33472a35.83488 35.83488 0 0 1 50.68288 0 35.83488 35.83488 0 0 1 0 50.68288l-130.33472 130.33472a35.83488 35.83488 0 0 1-50.68288 0zM701.44 512a35.84 35.84 0 0 1 35.84-35.84h184.32a35.84 35.84 0 1 1 0 71.68h-184.32a35.84 35.84 0 0 1-35.84-35.84zM66.56 512a35.84 35.84 0 0 1 35.84-35.84h184.32a35.84 35.84 0 1 1 0 71.68H102.4a35.84 35.84 0 0 1-35.84-35.84zM645.95456 645.95456a35.83488 35.83488 0 0 1 50.68288 0l130.33472 130.33472a35.83488 35.83488 0 0 1 0 50.68288 35.83488 35.83488 0 0 1-50.68288 0l-130.33472-130.33472a35.83488 35.83488 0 0 1 0-50.68288zM197.02784 197.02784a35.83488 35.83488 0 0 1 50.68288 0l130.33472 130.33472a35.83488 35.83488 0 0 1 0 50.68288 35.83488 35.83488 0 0 1-50.68288 0L197.02784 247.71072a35.83488 35.83488 0 0 1 0-50.68288z" fill="#2c76ef" p-id="4682"></path></svg>