<?xml version="1.0" standalone="no"?><!DOCTYPE svg PUBLIC "-//W3C//DTD SVG 1.1//EN" "http://www.w3.org/Graphics/SVG/1.1/DTD/svg11.dtd"><svg t="1646477415034" class="icon" viewBox="0 0 1024 1024" version="1.1" xmlns="http://www.w3.org/2000/svg" p-id="8262" xmlns:xlink="http://www.w3.org/1999/xlink" width="300" height="300"><defs><style type="text/css"></style></defs><path d="M189.124926 206.817739 834.875074 206.817739C824.056355 206.817739 815.037987 197.278738 815.718488 186.375821L766.845228 969.422054C767.420593 960.203599 774.673955 953.37931 784.03501 953.37931L239.96499 953.37931C249.232543 953.37931 256.586205 960.312638 257.154772 969.422054L208.281512 186.375821C208.961624 197.272664 199.982115 206.817739 189.124926 206.817739ZM186.671228 973.821228C188.422497 1001.879852 211.883661 1024 239.96499 1024L784.03501 1024C811.990051 1024 835.582287 1001.80337 837.328772 973.821228L886.202033 190.774996C888.065218 160.922854 864.68894 136.197049 834.875074 136.197049L189.124926 136.197049C159.269853 136.197049 135.939407 160.996952 137.797967 190.774996L186.671228 973.821228ZM971.034483 206.817739C990.535839 206.817739 1006.344828 191.00875 1006.344828 171.507394 1006.344828 152.00602 990.535839 136.197049 971.034483 136.197049L52.965517 136.197049C33.464161 136.197049 17.655172 152.00602 17.655172 171.507394 17.655172 191.00875 33.464161 206.817739 52.965517 206.817739L971.034483 206.817739ZM358.849148 206.817739 665.150852 206.817739C694.015417 206.817739 717.323123 183.246901 717.323123 154.533323L717.323123 52.284416C717.323123 23.465207 693.830144 0 665.150852 0L358.849148 0C329.984583 0 306.676877 23.570838 306.676877 52.284416L306.676877 154.533323C306.676877 183.352514 330.169856 206.817739 358.849148 206.817739ZM377.297567 52.284416C377.297567 62.397193 369.165877 70.62069 358.849148 70.62069L665.150852 70.62069C654.846093 70.62069 646.702433 62.486652 646.702433 52.284416L646.702433 154.533323C646.702433 144.420529 654.834123 136.197049 665.150852 136.197049L358.849148 136.197049C369.153907 136.197049 377.297567 144.331087 377.297567 154.533323L377.297567 52.284416ZM595.6986 835.467988C595.6986 854.969344 611.507571 870.778333 631.008945 870.778333 650.510301 870.778333 666.319289 854.969344 666.319289 835.467988L666.319289 324.729062C666.319289 305.227705 650.510301 289.418717 631.008945 289.418717 611.507571 289.418717 595.6986 305.227705 595.6986 324.729062L595.6986 835.467988ZM428.3014 324.729062C428.3014 305.227705 412.492429 289.418717 392.991055 289.418717 373.489699 289.418717 357.680711 305.227705 357.680711 324.729062L357.680711 835.467988C357.680711 854.969344 373.489699 870.778333 392.991055 870.778333 412.492429 870.778333 428.3014 854.969344 428.3014 835.467988L428.3014 324.729062Z" p-id="8263" fill="#ffffff"></path></svg>